<svg xmlns="http://www.w3.org/2000/svg" xml:space="preserve" id="Layer_1" x="0" y="0" viewBox="0 0 1080 1080"><style>.st1{fill:#c9e88a}</style><path d="M870.84 430.56v65.87a55 55 0 0 1-11.75 33.96c-29.44 37.42-58.88 74.85-88.31 112.27a55.62 55.62 0 0 1-43.72 21.23H609.34c-10.66 0-19.37-8.49-19.65-19.14l-.41-15.91 166.27-200.43c6.58-7.91 16.29-12.57 26.58-12.7 24.19-.35 48.35-.71 72.54-1.06 8.89-.14 16.17 7.02 16.17 15.91" class="st1"/><path d="M569.78 586.18c2.69-3.6 7.15-5.32 11.37-4.38.92.2 1.75.52 2.49.9 3.44 1.77 5.38 5.53 5.41 9.4l.38 43.06c8.37-2.32 22.44-7.52 35.46-19.67 25.31-23.62 27.12-55.26 27.35-62.55-6.4 5.55-10.55 5.33-12.37 4.95-8.94-1.86-15.34-18.95-13.83-43.26-4.65.64-26.37 4.13-42.23 23.91-16.34 20.39-14.49 43.17-14.03 47.64M221.33 563.07a7.46 7.46 0 0 0 7.46 7.46h54.12c6.91 0 13.52-2.85 18.27-7.88 10.69-11.33 21.37-22.66 32.06-33.99 10.28-10.9 20.56-21.8 30.84-32.71a25.13 25.13 0 0 0 6.84-17.23v-54.75c0-5.75-4.66-10.4-10.4-10.4h-57.47c-6.59 0-12.91 2.59-17.6 7.2-9.36 9.2-18.72 18.4-28.07 27.61l-28.53 28.05c-4.8 4.72-7.5 11.17-7.5 17.9v68.74z" class="st1"/><path d="M239.06 563.07a7.46 7.46 0 0 0 7.46 7.46h54.12c6.91 0 13.52-2.85 18.27-7.88 10.69-11.33 21.37-22.66 32.06-33.99 10.28-10.9 20.56-21.8 30.84-32.71a25.13 25.13 0 0 0 6.84-17.23v-54.75c0-5.75-4.66-10.4-10.4-10.4h-57.47c-6.59 0-12.91 2.59-17.6 7.2-9.36 9.2-18.72 18.4-28.07 27.61l-28.53 28.05c-4.8 4.72-7.5 11.17-7.5 17.9v68.74zM507.14 432 352.36 618.54a32.74 32.74 0 0 0-7.54 21.78l2.02 78.3c.2 7.92 6.75 14.21 14.67 14.1 27.96-.4 55.93-.8 83.89-1.19 6.44-.09 12.5-3.09 16.48-8.15 54.73-69.58 109.45-139.17 164.18-208.75v-84.89c0-8.89-7.28-16.06-16.16-15.93-22.27.33-44.54.65-66.81.98A47.63 47.63 0 0 0 507.14 432" class="st1"/><path d="M344.82 640.32c.04-2.08.28-52.86-30.19-66.53-3.63-1.63-8.24-2.98-14-3.26-.66-1.99-12.4-39.71 13.25-69.7 18.08-21.14 47.36-29.8 74.76-22.11-1.05 45.39 3.27 69.29 12.96 71.72 2.98.75 6.47-.54 10.46-3.85 4.73 8.32 10.48 22.01 7.99 37.62-4.53 28.5-34.82 52.68-75.23 56.11" class="st1"/></svg>