<?xml version="1.0" encoding="utf-8"?>
<!-- Generator: Adobe Illustrator 24.1.3, SVG Export Plug-In . SVG Version: 6.00 Build 0)  -->
<svg version="1.1" id="Layer_1" xmlns="http://www.w3.org/2000/svg" xmlns:xlink="http://www.w3.org/1999/xlink" x="0px" y="0px"
	 viewBox="0 0 1080 1080" style="enable-background:new 0 0 1080 1080;" xml:space="preserve">
<style type="text/css">
	.st0{fill:#304423;}
	.st1{fill:#C9E88A;}
	.st2{fill:#FAF8F9;}
	.st3{fill:#FFFFFF;}
</style>
<g>
	<path class="st0" d="M844.97,449.37v53.36c0,9.98-3.36,19.66-9.52,27.51c-23.85,30.31-47.69,60.63-71.54,90.95
		c-8.54,10.86-21.6,17.2-35.41,17.2h-95.35c-8.63,0-15.69-6.88-15.91-15.51l-0.33-12.89l134.69-162.36
		c5.33-6.41,13.2-10.18,21.53-10.29c19.59-0.29,39.17-0.57,58.76-0.86C839.08,436.36,844.97,442.16,844.97,449.37z"/>
	<path class="st0" d="M601.1,575.43c2.18-2.91,5.8-4.31,9.21-3.55c0.75,0.17,1.42,0.42,2.02,0.73c2.78,1.43,4.36,4.48,4.39,7.61
		l0.31,34.88c6.78-1.88,18.17-6.09,28.73-15.94c20.5-19.14,21.97-44.76,22.16-50.67c-5.18,4.49-8.55,4.32-10.02,4.01
		c-7.25-1.51-12.42-15.35-11.2-35.04c-3.77,0.52-21.36,3.35-34.21,19.37C599.23,553.36,600.73,571.81,601.1,575.43z"/>
	<g>
		<path class="st0" d="M318.83,556.71c0,3.34,2.71,6.04,6.04,6.04c9.49,0,18.97,0,28.46,0c5.13,0,10.25,0,15.38,0
			c5.6,0,10.95-2.31,14.8-6.38c8.66-9.18,17.31-18.36,25.97-27.54c8.33-8.83,16.66-17.66,24.99-26.49
			c3.56-3.77,5.54-8.77,5.54-13.95c0-9.85,0-19.69,0-29.54c0-4.94,0-9.87,0-14.81c0-4.65-3.77-8.43-8.43-8.43
			c-8.13,0-16.26,0-24.39,0c-7.39,0-14.78,0-22.17,0c-5.33,0-10.46,2.1-14.26,5.84c-7.58,7.45-15.16,14.91-22.74,22.36
			c-7.7,7.57-15.41,15.15-23.11,22.72c-3.89,3.82-6.08,9.05-6.08,14.5c0,8.25,0,16.49,0,24.74V556.71z"/>
		<path class="st0" d="M333.19,556.71c0,3.34,2.71,6.04,6.04,6.04c9.49,0,18.97,0,28.46,0c5.13,0,10.25,0,15.38,0
			c5.6,0,10.95-2.31,14.8-6.38c8.66-9.18,17.31-18.36,25.97-27.54c8.33-8.83,16.66-17.66,24.99-26.49
			c3.56-3.77,5.54-8.77,5.54-13.95c0-9.85,0-19.69,0-29.54c0-4.94,0-9.87,0-14.81c0-4.65-3.77-8.43-8.43-8.43
			c-8.13,0-16.26,0-24.39,0c-7.39,0-14.78,0-22.17,0c-5.33,0-10.46,2.1-14.26,5.84c-7.58,7.45-15.16,14.91-22.74,22.36
			c-7.7,7.57-15.41,15.15-23.11,22.72c-3.89,3.82-6.08,9.05-6.08,14.5c0,8.25,0,16.49,0,24.74V556.71z"/>
	</g>
	<path class="st0" d="M550.35,450.54L424.98,601.65c-4.1,4.95-6.28,11.21-6.11,17.64l1.63,63.43c0.17,6.42,5.46,11.51,11.88,11.42
		c22.65-0.32,45.3-0.64,67.96-0.97c5.22-0.07,10.13-2.5,13.35-6.6c44.33-56.37,88.66-112.73,132.99-169.1V448.7
		c0-7.2-5.89-13.01-13.09-12.9c-18.04,0.27-36.08,0.53-54.12,0.8C568.2,436.76,557.56,441.86,550.35,450.54z"/>
	<path class="st0" d="M418.87,619.29c0.03-1.69,0.22-42.82-24.45-53.9c-2.94-1.32-6.68-2.41-11.34-2.64
		c-0.53-1.61-10.05-32.17,10.73-56.46c14.65-17.12,38.36-24.14,60.56-17.91c-0.85,36.77,2.65,56.13,10.5,58.1
		c2.41,0.6,5.24-0.44,8.47-3.12c3.83,6.74,8.49,17.83,6.48,30.47C476.14,596.92,451.6,616.51,418.87,619.29z"/>
</g>
</svg>
