<?xml version="1.0" encoding="utf-8"?>
<!-- Generator: Adobe Illustrator 24.1.3, SVG Export Plug-In . SVG Version: 6.00 Build 0)  -->
<svg version="1.1" id="Layer_1" xmlns="http://www.w3.org/2000/svg" xmlns:xlink="http://www.w3.org/1999/xlink" x="0px" y="0px"
	 viewBox="0 0 1080 1080" style="enable-background:new 0 0 1080 1080;" xml:space="preserve">
<style type="text/css">
	.st0{fill:#304423;}
	.st1{fill:#C9E88A;}
	.st2{fill:#FAF8F9;}
</style>
<rect y="0" class="st0" width="1080" height="1080"/>
<g>
	<path class="st1" d="M416.4,475.68v29.71c0,5.56-1.87,10.95-5.3,15.32c-13.28,16.88-26.56,33.76-39.84,50.64
		c-4.76,6.05-12.03,9.58-19.72,9.58h-53.1c-4.81,0-8.74-3.83-8.86-8.63l-0.19-7.18l75-90.41c2.97-3.57,7.35-5.67,11.99-5.73
		c10.91-0.16,21.81-0.32,32.72-0.48C413.12,468.44,416.4,471.67,416.4,475.68z"/>
	<path class="st1" d="M280.61,545.88c1.21-1.62,3.23-2.4,5.13-1.98c0.42,0.09,0.79,0.23,1.12,0.41c1.55,0.8,2.43,2.5,2.44,4.24
		l0.17,19.42c3.78-1.05,10.12-3.39,16-8.87c11.42-10.66,12.23-24.92,12.34-28.21c-2.88,2.5-4.76,2.4-5.58,2.23
		c-4.03-0.84-6.92-8.55-6.24-19.51c-2.1,0.29-11.9,1.86-19.05,10.79C279.57,533.59,280.4,543.86,280.61,545.88z"/>
	<path class="st1" d="M475.74,592.63l-18.7-77.12h24.54l9.49,58.72H494l11.83-58.72h27.9l12.27,58.72h3.07l9.06-58.72h24.1
		l-18.7,77.12H531.1l-10.66-58.13h-2.77l-9.93,58.13H475.74z"/>
	<path class="st1" d="M620.45,594.68c-7.79,0-14.68-1.51-20.67-4.53c-5.99-3.02-10.69-7.54-14.09-13.58
		c-3.41-6.04-5.11-13.58-5.11-22.64c0-9.06,1.7-16.58,5.11-22.57c3.41-5.99,8.13-10.47,14.17-13.44c6.04-2.97,12.95-4.46,20.74-4.46
		c7.79,0,14.7,1.51,20.74,4.53c6.04,3.02,10.76,7.52,14.17,13.51c3.41,5.99,5.11,13.51,5.11,22.57c0,9.25-1.75,16.9-5.26,22.93
		c-3.51,6.04-8.3,10.49-14.39,13.36C634.89,593.24,628.05,594.68,620.45,594.68z M621.18,577.59c3.5,0,6.43-0.8,8.76-2.41
		c2.34-1.61,4.09-4.07,5.26-7.38c1.17-3.31,1.75-7.4,1.75-12.27c0-5.16-0.63-9.52-1.9-13.07c-1.27-3.55-3.14-6.28-5.62-8.18
		c-2.48-1.9-5.67-2.85-9.57-2.85c-3.31,0-6.16,0.8-8.54,2.41c-2.39,1.61-4.16,4.07-5.33,7.38c-1.17,3.31-1.75,7.45-1.75,12.42
		c0,7.99,1.48,13.97,4.46,17.97C611.66,575.59,615.83,577.59,621.18,577.59z"/>
	<path class="st1" d="M667.35,592.63v-35.78v-41.34h19.28l0.44,26.14h2.92c0.68-6.81,1.97-12.24,3.87-16.29
		c1.9-4.04,4.62-6.99,8.18-8.84c3.55-1.85,7.96-2.77,13.22-2.77c0.78,0,1.65,0.02,2.63,0.07c0.97,0.05,2.09,0.17,3.36,0.37
		l-0.88,25.12c-1.56-0.78-3.24-1.29-5.04-1.53c-1.8-0.24-3.39-0.37-4.75-0.37c-3.8,0-7.08,0.73-9.86,2.19
		c-2.78,1.46-4.97,3.7-6.57,6.72c-1.61,3.02-2.65,6.82-3.14,11.39v34.91H667.35z"/>
	<path class="st1" d="M774.7,572.18c-1.65,0.39-3.41,0.58-5.25,0.58c-3.32,0-5.77-0.78-7.38-2.34c-1.61-1.55-2.42-3.99-2.42-7.3
		v-16.39c0-4.98-3.56-9.26-8.46-10.16c-2.45-0.45-4.48-0.4-5.24-0.36c0.01-0.56,0.03-1.12,0.06-1.69
		c5.95,0.04,11.89,0.08,17.83,0.11h14.36v-19.13h-18.55v-17.09h-13.29l-1.9,10.81c-0.38,2.44-1.38,4.09-2.99,4.97
		c-1.61,0.88-3.97,1.36-7.08,1.46h-7.88l-0.44,18.26h10.95v30.22c0,10.61,2.14,18.34,6.42,23.15c4.3,4.82,10.96,7.23,20.01,7.23
		c1.95,0,4.22-0.12,6.79-0.36c2.59-0.25,5.43-0.85,8.55-1.82v-21.77C777.72,571.26,776.36,571.79,774.7,572.18z"/>
	<path class="st1" d="M787.67,592.63v-49.08v-56.09h23.52v24.1c0,1.95-0.07,3.97-0.22,6.06c-0.15,2.09-0.39,4.24-0.73,6.43
		c-0.34,2.19-0.68,4.41-1.02,6.65c-0.34,2.24-0.76,4.43-1.24,6.57h3.5c1.36-4.77,3.07-8.93,5.11-12.49
		c2.04-3.55,4.72-6.33,8.03-8.33c3.31-1.99,7.54-2.99,12.71-2.99c9.15,0,15.99,3.19,20.52,9.57c4.53,6.38,6.79,16.19,6.79,29.43
		v40.17h-23.66v-36.22c0-7.89-1.15-13.8-3.43-17.75c-2.29-3.94-5.77-5.92-10.44-5.92c-3.6,0-6.57,1.12-8.91,3.36
		c-2.34,2.24-4.09,5.24-5.26,8.98c-1.17,3.75-1.75,7.91-1.75,12.49v35.05H787.67z"/>
	<g>
		<g>
			<path class="st1" d="M879.16,591.56v-75.95h15.92v75.95H879.16z"/>
			<path class="st1" d="M942.11,593.17c-7.5,0-13.05-2.02-16.65-6.06c-3.6-4.04-5.4-10.35-5.4-18.92v-39.58h-11.25l0.15-13h7.3
				c2.53,0,4.41-0.41,5.62-1.24c1.22-0.83,2.02-2.36,2.41-4.6l1.46-11.1h9.49v16.94h20.89v13.29h-20.89v38.85
				c0,3.7,0.88,6.4,2.63,8.11c1.75,1.7,4.28,2.56,7.6,2.56c1.95,0,3.85-0.24,5.7-0.73c1.85-0.49,3.65-1.36,5.4-2.63v15.48
				c-2.83,0.97-5.48,1.65-7.96,2.04C946.13,592.97,943.96,593.17,942.11,593.17z"/>
		</g>
	</g>
	<g>
		<g>
			<g>
				<path class="st1" d="M123.43,535.45c0,1.86,1.51,3.37,3.37,3.37c5.28,0,10.56,0,15.85,0c2.85,0,5.71,0,8.56,0
					c3.12,0,6.1-1.29,8.24-3.55c4.82-5.11,9.64-10.22,14.46-15.33c4.64-4.92,9.28-9.84,13.91-14.75c1.98-2.1,3.09-4.88,3.09-7.77
					c0-5.48,0-10.97,0-16.45c0-2.75,0-5.5,0-8.25c0-2.59-2.1-4.69-4.69-4.69c-4.53,0-9.05,0-13.58,0c-4.11,0-8.23,0-12.34,0
					c-2.97,0-5.82,1.17-7.94,3.25c-4.22,4.15-8.44,8.3-12.66,12.45c-4.29,4.22-8.58,8.44-12.87,12.65
					c-2.17,2.13-3.38,5.04-3.38,8.07c0,4.59,0,9.18,0,13.78V535.45z"/>
			</g>
			<g>
				<path class="st1" d="M131.43,535.45c0,1.86,1.51,3.37,3.37,3.37c5.28,0,10.56,0,15.85,0c2.85,0,5.71,0,8.56,0
					c3.12,0,6.1-1.29,8.24-3.55c4.82-5.11,9.64-10.22,14.46-15.33c4.64-4.92,9.28-9.84,13.91-14.75c1.98-2.1,3.09-4.88,3.09-7.77
					c0-5.48,0-10.97,0-16.45c0-2.75,0-5.5,0-8.25c0-2.59-2.1-4.69-4.69-4.69c-4.53,0-9.05,0-13.58,0c-4.11,0-8.23,0-12.34,0
					c-2.97,0-5.82,1.17-7.94,3.25c-4.22,4.15-8.44,8.3-12.66,12.45c-4.29,4.22-8.58,8.44-12.87,12.65
					c-2.17,2.13-3.38,5.04-3.38,8.07c0,4.59,0,9.18,0,13.78V535.45z"/>
			</g>
		</g>
	</g>
	<path class="st1" d="M252.35,476.33l-69.82,84.14c-2.29,2.75-3.49,6.24-3.4,9.82l0.91,35.32c0.09,3.57,3.04,6.41,6.62,6.36
		c12.61-0.18,25.23-0.36,37.84-0.54c2.91-0.04,5.64-1.39,7.43-3.68c24.69-31.39,49.37-62.77,74.06-94.16v-38.29
		c0-4.01-3.28-7.24-7.29-7.18c-10.04,0.15-20.09,0.3-30.13,0.44C262.29,468.66,256.36,471.5,252.35,476.33z"/>
	<path class="st1" d="M179.13,570.3c0.02-0.94,0.13-23.84-13.62-30.01c-1.64-0.73-3.72-1.34-6.31-1.47
		c-0.3-0.9-5.59-17.91,5.97-31.44c8.15-9.53,21.36-13.44,33.72-9.97c-0.48,20.47,1.47,31.26,5.84,32.35
		c1.34,0.34,2.92-0.24,4.72-1.74c2.13,3.75,4.73,9.93,3.61,16.97C211.02,557.84,197.36,568.75,179.13,570.3z"/>
	
		<rect x="879.25" y="486.64" transform="matrix(0.7071 -0.7071 0.7071 0.7071 -89.8979 772.2728)" class="st1" width="16.03" height="16.03"/>
</g>
</svg>
