<?xml version="1.0" encoding="utf-8"?>
<!-- Generator: Adobe Illustrator 24.1.3, SVG Export Plug-In . SVG Version: 6.00 Build 0)  -->
<svg version="1.1" id="Layer_1" xmlns="http://www.w3.org/2000/svg" xmlns:xlink="http://www.w3.org/1999/xlink" x="0px" y="0px"
	 viewBox="0 0 1080 1080" style="enable-background:new 0 0 1080 1080;" xml:space="preserve">
<style type="text/css">
	.st0{fill:#304423;}
	.st1{fill:#C9E88A;}
	.st2{fill:#FAF8F9;}
</style>
<path class="st0" d="M821.54,996.71H262.26c-95.86,0-173.57-77.71-173.57-173.57V263.86c0-95.86,77.71-173.57,173.57-173.57h559.29
	c95.86,0,173.57,77.71,173.57,173.57v559.29C995.11,919,917.4,996.71,821.54,996.71z"/>
<g>
	<path class="st1" d="M870.84,430.56v65.87c0,12.33-4.15,24.28-11.75,33.96c-29.44,37.42-58.88,74.85-88.31,112.27
		c-10.55,13.41-26.66,21.23-43.72,21.23H609.34c-10.66,0-19.37-8.49-19.65-19.14l-0.41-15.91l166.27-200.43
		c6.58-7.91,16.29-12.57,26.58-12.7c24.19-0.35,48.35-0.71,72.54-1.06C863.56,414.51,870.84,421.67,870.84,430.56z"/>
	<path class="st1" d="M569.78,586.18c2.69-3.6,7.15-5.32,11.37-4.38c0.92,0.2,1.75,0.52,2.49,0.9c3.44,1.77,5.38,5.53,5.41,9.4
		l0.38,43.06c8.37-2.32,22.44-7.52,35.46-19.67c25.31-23.62,27.12-55.26,27.35-62.55c-6.4,5.55-10.55,5.33-12.37,4.95
		c-8.94-1.86-15.34-18.95-13.83-43.26c-4.65,0.64-26.37,4.13-42.23,23.91C567.47,558.93,569.32,581.71,569.78,586.18z"/>
	<g>
		<path class="st1" d="M221.33,563.07c0,4.12,3.34,7.46,7.46,7.46c11.71,0,23.42,0,35.13,0c6.33,0,12.66,0,18.99,0
			c6.91,0,13.52-2.85,18.27-7.88c10.69-11.33,21.37-22.66,32.06-33.99c10.28-10.9,20.56-21.8,30.84-32.71
			c4.39-4.66,6.84-10.82,6.84-17.23c0-12.15,0-24.31,0-36.46c0-6.1,0-12.19,0-18.29c0-5.75-4.66-10.4-10.4-10.4
			c-10.04,0-20.07,0-30.11,0c-9.12,0-18.24,0-27.36,0c-6.59,0-12.91,2.59-17.6,7.2c-9.36,9.2-18.72,18.4-28.07,27.61
			c-9.51,9.35-19.02,18.7-28.53,28.05c-4.8,4.72-7.5,11.17-7.5,17.9c0,10.18,0,20.36,0,30.54V563.07z"/>
		<path class="st1" d="M239.06,563.07c0,4.12,3.34,7.46,7.46,7.46c11.71,0,23.42,0,35.13,0c6.33,0,12.66,0,18.99,0
			c6.91,0,13.52-2.85,18.27-7.88c10.69-11.33,21.37-22.66,32.06-33.99c10.28-10.9,20.56-21.8,30.84-32.71
			c4.39-4.66,6.84-10.82,6.84-17.23c0-12.15,0-24.31,0-36.46c0-6.1,0-12.19,0-18.29c0-5.75-4.66-10.4-10.4-10.4
			c-10.04,0-20.07,0-30.11,0c-9.12,0-18.24,0-27.36,0c-6.59,0-12.91,2.59-17.6,7.2c-9.36,9.2-18.72,18.4-28.07,27.61
			c-9.51,9.35-19.02,18.7-28.53,28.05c-4.8,4.72-7.5,11.17-7.5,17.9c0,10.18,0,20.36,0,30.54V563.07z"/>
	</g>
	<path class="st1" d="M507.14,432L352.36,618.54c-5.07,6.11-7.75,13.84-7.54,21.78l2.02,78.3c0.2,7.92,6.75,14.21,14.67,14.1
		c27.96-0.4,55.93-0.8,83.89-1.19c6.44-0.09,12.5-3.09,16.48-8.15c54.73-69.58,109.45-139.17,164.18-208.75v-84.89
		c0-8.89-7.28-16.06-16.16-15.93c-22.27,0.33-44.54,0.65-66.81,0.98C529.17,415,516.03,421.28,507.14,432z"/>
	<path class="st1" d="M344.82,640.32c0.04-2.08,0.28-52.86-30.19-66.53c-3.63-1.63-8.24-2.98-14-3.26
		c-0.66-1.99-12.4-39.71,13.25-69.7c18.08-21.14,47.36-29.8,74.76-22.11c-1.05,45.39,3.27,69.29,12.96,71.72
		c2.98,0.75,6.47-0.54,10.46-3.85c4.73,8.32,10.48,22.01,7.99,37.62C415.52,612.71,385.23,636.89,344.82,640.32z"/>
</g>
</svg>
